<svg xmlns="http://www.w3.org/2000/svg" xmlns:xlink="http://www.w3.org/1999/xlink" viewBox="0 0 531.09 538.52"><defs><style>.cls-1{fill:url(#Degradado_sin_nombre_51);}.cls-2{fill:url(#Degradado_sin_nombre_51-2);}.cls-3{fill:url(#Degradado_sin_nombre_51-3);}.cls-4{fill:url(#Degradado_sin_nombre_51-4);}.cls-5{fill:url(#Degradado_sin_nombre_51-6);}.cls-6{fill:url(#Degradado_sin_nombre_51-9);}.cls-7{fill:url(#Degradado_sin_nombre_51-11);}.cls-8{fill:url(#Degradado_sin_nombre_51-12);}.cls-9{fill:url(#Degradado_sin_nombre_51-15);}.cls-10{fill:url(#Degradado_sin_nombre_51-16);}.cls-11{fill:url(#Degradado_sin_nombre_51-18);}.cls-12{fill:url(#Degradado_sin_nombre_51-34);}</style><linearGradient id="Degradado_sin_nombre_51" x1="274.74" y1="-18.42" x2="274.74" y2="545.75" gradientUnits="userSpaceOnUse"><stop offset="0" stop-color="#f3e4d9"/><stop offset="1" stop-color="#cfa687"/></linearGradient><linearGradient id="Degradado_sin_nombre_51-2" x1="265.54" y1="-18.42" x2="265.54" y2="545.75" xlink:href="#Degradado_sin_nombre_51"/><linearGradient id="Degradado_sin_nombre_51-3" x1="261.45" y1="-18.42" x2="261.45" y2="545.75" xlink:href="#Degradado_sin_nombre_51"/><linearGradient id="Degradado_sin_nombre_51-4" x1="261.45" y1="-18.42" x2="261.45" y2="545.75" xlink:href="#Degradado_sin_nombre_51"/><linearGradient id="Degradado_sin_nombre_51-6" x1="71.86" y1="-18.42" x2="71.86" y2="545.75" xlink:href="#Degradado_sin_nombre_51"/><linearGradient id="Degradado_sin_nombre_51-9" x1="451.05" y1="-18.42" x2="451.05" y2="545.75" xlink:href="#Degradado_sin_nombre_51"/><linearGradient id="Degradado_sin_nombre_51-11" x1="451.05" y1="-18.42" x2="451.05" y2="545.75" xlink:href="#Degradado_sin_nombre_51"/><linearGradient id="Degradado_sin_nombre_51-12" x1="356.25" y1="-18.42" x2="356.25" y2="545.75" xlink:href="#Degradado_sin_nombre_51"/><linearGradient id="Degradado_sin_nombre_51-15" x1="166.66" y1="-18.42" x2="166.66" y2="545.75" xlink:href="#Degradado_sin_nombre_51"/><linearGradient id="Degradado_sin_nombre_51-16" x1="166.66" y1="-18.42" x2="166.66" y2="545.75" xlink:href="#Degradado_sin_nombre_51"/><linearGradient id="Degradado_sin_nombre_51-18" x1="267.06" y1="-18.42" x2="267.06" y2="545.75" xlink:href="#Degradado_sin_nombre_51"/><linearGradient id="Degradado_sin_nombre_51-34" x1="262.86" y1="-18.42" x2="262.86" y2="545.75" xlink:href="#Degradado_sin_nombre_51"/></defs><g id="Capa_2" data-name="Capa 2"><g id="Capa_1-2" data-name="Capa 1"><path class="cls-1" d="M410.56,249.64c35.58-65.93,89.29-109.7,89.83-110.13A7,7,0,0,0,501,139a6.26,6.26,0,0,0,1.76-3.86,7.41,7.41,0,0,0,0-1l0-.24c0-.1,0-.22-.05-.35a6.38,6.38,0,0,0-.74-2,6.63,6.63,0,0,0-5.79-3.14,300.46,300.46,0,0,0-47,3.76l-.23,0c-1.85.3-3.64.61-5.43.93l-.29.06c-1.9.34-3.64.68-5.38,1l-.54.11q-2.54.51-5,1.07l-.71.15c-1.65.37-3.28.76-4.91,1.16l-.78.18c-1.63.41-3.23.82-4.84,1.25l-.8.21q-2.43.64-4.81,1.34l-.79.22c-1.6.47-3.17.95-4.75,1.44l-.8.24q-2.75.87-5.46,1.79a7,7,0,0,1-7.57-2.09c-.05-.06-.1-.13-.16-.19a7,7,0,0,1-.76-7.6c23.3-45.35,52.49-74.95,52.79-75.25a6.28,6.28,0,0,0-4.41-10.74h-.3c-37.54,0-73.22,13.15-103.18,38a7,7,0,0,1-11.27-3.58,205.9,205.9,0,0,0-21.33-51.41c-10.74-18-21.6-28.69-30.57-30.21A11.16,11.16,0,0,0,275,0h-.43a11.55,11.55,0,0,0-1.75.18c-9,1.54-19.91,12.27-30.65,30.23a205.9,205.9,0,0,0-21.33,51.41,7,7,0,0,1-11.26,3.58c-30-24.82-65.63-37.95-103.17-38H106a6.28,6.28,0,0,0-4.37,10.72c.3.3,29.36,29.62,52.81,75.27a7,7,0,0,1-.76,7.6l-.14.16a7,7,0,0,1-7.59,2.12q-2.72-.92-5.46-1.79l-.8-.24c-1.58-.49-3.15-1-4.74-1.43l-.81-.23c-1.58-.46-3.18-.91-4.78-1.34l-.82-.21q-2.4-.65-4.83-1.24l-.8-.19c-1.61-.4-3.25-.79-4.88-1.15l-.71-.16c-1.68-.37-3.35-.73-5-1.07l-.54-.11c-1.75-.35-3.49-.69-5.24-1l-.41-.07c-1.82-.33-3.61-.64-5.4-.93l-.27,0a300.94,300.94,0,0,0-47.06-3.76,6.63,6.63,0,0,0-5.78,3.14,6.42,6.42,0,0,0-.74,2c0,.11,0,.24,0,.38a1.62,1.62,0,0,1,0,.18,6.73,6.73,0,0,0,0,1.1A6.26,6.26,0,0,0,48.53,139a5,5,0,0,0,.53.49c.57.46,54.39,44.44,89.85,110.15a6.22,6.22,0,0,0,8.13,2.63l.2-.09a6,6,0,0,0,3.19-3.6,6.07,6.07,0,0,0-.41-4.83c-20.8-38.67-47.27-69.53-65.82-88.6a7,7,0,0,1,6-11.86,274.09,274.09,0,0,1,34.86,6.88l.59.15c1.35.36,2.7.74,4.06,1.13l.84.24,3.79,1.13,1.09.33c1.19.37,2.37.76,3.56,1.14l1.27.41c1.09.36,2.18.74,3.26,1.12l1.52.52,3,1.08,1.76.65c.91.34,1.8.69,2.7,1l2,.77,2.53,1,2.11.87c.82.34,1.64.7,2.46,1.06l2.11.92,2.37,1.07c3.16,1.45,6.33,3,9.43,4.56,1.89,1,3.64,1.89,5.38,2.83l1.82,1q2.18,1.2,4.33,2.46l1.51.87c1.58.94,3.14,1.89,4.7,2.86.73.45,1.44.9,2.15,1.36,1.12.71,2.24,1.45,3.36,2.18.95.63,1.89,1.27,2.83,1.91q1.78,1.21,3.54,2.46l2.5,1.81c.85.62,1.69,1.25,2.53,1.88q1.92,1.44,3.8,2.93c.89.7,1.77,1.39,2.64,2.1l2.57,2.12c.74.62,1.48,1.26,2.22,1.89s1.75,1.51,2.62,2.28a170.44,170.44,0,0,1,14.2,15.09c6.35,7.33,12.34,14.25,19.49,18.94a8.25,8.25,0,0,0,2,.95,38.25,38.25,0,0,0,14.56,1.88,5.91,5.91,0,0,1,1,0,38.09,38.09,0,0,0,14.56-1.89,7.5,7.5,0,0,0,2-.94c7.16-4.68,13.15-11.61,19.5-18.94a169.54,169.54,0,0,1,14.15-15c.91-.81,1.8-1.57,2.68-2.33s1.47-1.27,2.22-1.89,1.7-1.42,2.57-2.12,1.74-1.4,2.62-2.09q1.89-1.48,3.81-2.94c.84-.63,1.68-1.26,2.53-1.88l2.5-1.81c1.17-.83,2.36-1.65,3.55-2.47.93-.63,1.87-1.27,2.82-1.89,1.11-.74,2.24-1.48,3.37-2.2l2.13-1.34q2.36-1.47,4.72-2.87l1.49-.87q2.16-1.26,4.34-2.46l1.83-1c1.73-.94,3.48-1.87,5.24-2.77,2.47-1.26,5.07-2.53,7.55-3.69l2-.93,2.37-1.07,1.94-.85,2.63-1.13,2.11-.87,2.52-1,2-.77c.9-.35,1.79-.7,2.7-1l1.52-.56c1.17-.43,2.19-.81,3.21-1.17l1.41-.48,3.37-1.16,1.27-.41c1.26-.41,2.41-.78,3.57-1.14l1.08-.33,3.79-1.13.84-.24c1.36-.39,2.71-.77,4.08-1.13l.58-.16a274.32,274.32,0,0,1,34.81-6.86,7,7,0,0,1,.91-.06,7,7,0,0,1,5.13,11.91c-18.55,19.07-45,49.93-65.81,88.6a6.11,6.11,0,0,0,2.73,8.41l.25.11A6.2,6.2,0,0,0,410.56,249.64ZM261.29,215.42a6.91,6.91,0,0,1-3,.69,7,7,0,0,1-5.31-2.42,229.49,229.49,0,0,0-29.29-28.21l-.17-.14q-1.74-1.41-3.53-2.77l-.55-.44c-1.06-.82-2.13-1.62-3.21-2.41l-1-.76c-.74-.55-1.5-1.09-2.26-1.63l-2-1.45c-.49-.34-1-.68-1.48-1l-1.46-1-1.42-1-2.13-1.4c-.77-.5-1.53-1-2.31-1.5l-.61-.39c-4.34-2.74-8.74-5.35-13.1-7.75-1.81-1-3.66-2-5.5-2.91a7,7,0,0,1-2-1.52L178.71,155a7,7,0,0,1-1.3-2.08c-13.67-33.67-31.87-60.89-44.73-77.8A7,7,0,0,1,139.92,64c63.14,15.31,112.3,71.76,125.25,143.8A7,7,0,0,1,261.29,215.42Zm13.45-41.12a7,7,0,0,1-6.6-4.62,200.11,200.11,0,0,0-37-63.09,7.06,7.06,0,0,1-1.59-6c8.51-43,29.34-74.89,40.47-84.88a7,7,0,0,1,9.39,0c11.13,10,32,41.87,40.47,84.88a7.06,7.06,0,0,1-1.59,6,199.9,199.9,0,0,0-37,63.09A7,7,0,0,1,274.74,174.3Zm97.32-21.38a7,7,0,0,1-1.31,2.09l-2.21,2.43a6.9,6.9,0,0,1-2,1.51c-1.84,1-3.69,1.91-5.5,2.91-4.36,2.4-8.76,5-13.09,7.75l-.63.39c-.8.51-1.59,1-2.39,1.56l-2,1.34-1.41,1-1.46,1c-.5.33-1,.67-1.48,1l-2.15,1.55q-1.08.75-2.13,1.53l-1,.76c-1.07.79-2.13,1.59-3.19,2.4l-.58.46c-1.18.91-2.37,1.84-3.55,2.79l-.2.17a229,229,0,0,0-29.22,28.15,7,7,0,0,1-5.31,2.42,6.91,6.91,0,0,1-3-.69,7,7,0,0,1-3.88-7.58c12.95-72,62.11-128.49,125.25-143.8a7,7,0,0,1,7.24,11.08C403.93,92,385.73,119.25,372.06,152.92Z"/><path class="cls-2" d="M502.49,497c-11.82-16.66-25.22-35.55-51.56-35.55S411.2,480.36,399.38,497c-11.39,16.06-22.15,31.23-43.18,31.23S324.41,513.08,313,497c-11.82-16.66-25.22-35.55-51.56-35.55S221.73,480.36,209.91,497c-11.39,16.06-22.15,31.23-43.18,31.23S135,513.08,123.56,497C111.73,480.36,98.34,461.47,72,461.47S32.26,480.36,20.44,497c-5.84,8.24-11.52,16.24-18.5,22.08a5.23,5.23,0,0,0-1.94,4H0A5.13,5.13,0,0,0,8.43,527c8.15-6.81,14.47-15.72,20.39-24.07C40.21,486.91,51,471.74,72,471.74s31.79,15.17,43.18,31.22c11.82,16.67,25.21,35.56,51.55,35.56s39.74-18.89,51.56-35.56c11.39-16,22.15-31.22,43.17-31.22s31.79,15.17,43.18,31.23c11.82,16.66,25.22,35.55,51.56,35.55s39.73-18.89,51.56-35.56c11.39-16,22.14-31.22,43.17-31.22s31.79,15.17,43.18,31.23c7.95,11.21,16.62,23.42,29.47,30.21a5.15,5.15,0,0,0,7.51-4.58h0a5.12,5.12,0,0,0-2.73-4.53C517.73,518.48,510.25,508,502.49,497Z"/><path class="cls-3" d="M261.45,500.47a6.42,6.42,0,1,0,6.42,6.42A6.43,6.43,0,0,0,261.45,500.47Z"/><path class="cls-4" d="M261.45,499.51a7.38,7.38,0,1,0,7.38,7.38A7.39,7.39,0,0,0,261.45,499.51Zm0,14.27a6.9,6.9,0,1,1,6.9-6.89A6.89,6.89,0,0,1,261.45,513.78Z"/><path class="cls-3" d="M261.45,500a6.9,6.9,0,1,0,6.9,6.9A6.9,6.9,0,0,0,261.45,500Zm0,13.31a6.42,6.42,0,1,1,6.42-6.41A6.42,6.42,0,0,1,261.45,513.3Z"/><path class="cls-5" d="M71.86,500.47a6.42,6.42,0,1,0,6.41,6.42A6.43,6.43,0,0,0,71.86,500.47Z"/><path class="cls-5" d="M71.86,499.51a7.38,7.38,0,1,0,7.38,7.38A7.39,7.39,0,0,0,71.86,499.51Zm0,14.27a6.9,6.9,0,1,1,6.9-6.89A6.88,6.88,0,0,1,71.86,513.78Z"/><path class="cls-5" d="M71.86,500a6.9,6.9,0,1,0,6.9,6.9A6.89,6.89,0,0,0,71.86,500Zm0,13.31a6.42,6.42,0,1,1,6.41-6.41A6.42,6.42,0,0,1,71.86,513.3Z"/><path class="cls-6" d="M451.05,500.47a6.42,6.42,0,1,0,6.41,6.42A6.43,6.43,0,0,0,451.05,500.47Z"/><path class="cls-6" d="M451.05,499.51a7.38,7.38,0,1,0,7.37,7.38A7.39,7.39,0,0,0,451.05,499.51Zm0,14.27a6.9,6.9,0,1,1,6.89-6.89A6.89,6.89,0,0,1,451.05,513.78Z"/><path class="cls-7" d="M451.05,500a6.9,6.9,0,1,0,6.89,6.9A6.9,6.9,0,0,0,451.05,500Zm0,13.31a6.42,6.42,0,1,1,6.41-6.41A6.43,6.43,0,0,1,451.05,513.3Z"/><path class="cls-8" d="M356.25,485a6.42,6.42,0,1,0,6.41,6.41A6.42,6.42,0,0,0,356.25,485Z"/><path class="cls-8" d="M356.25,484a7.38,7.38,0,1,0,7.38,7.37A7.39,7.39,0,0,0,356.25,484Zm0,14.27a6.9,6.9,0,1,1,6.89-6.9A6.89,6.89,0,0,1,356.25,498.26Z"/><path class="cls-8" d="M356.25,484.47a6.9,6.9,0,1,0,6.89,6.89A6.89,6.89,0,0,0,356.25,484.47Zm0,13.31a6.42,6.42,0,1,1,6.41-6.42A6.42,6.42,0,0,1,356.25,497.78Z"/><path class="cls-9" d="M166.66,485a6.42,6.42,0,1,0,6.41,6.41A6.43,6.43,0,0,0,166.66,485Z"/><path class="cls-10" d="M166.66,484a7.38,7.38,0,1,0,7.37,7.37A7.39,7.39,0,0,0,166.66,484Zm0,14.27a6.9,6.9,0,1,1,6.89-6.9A6.9,6.9,0,0,1,166.66,498.26Z"/><path class="cls-9" d="M166.66,484.47a6.9,6.9,0,1,0,6.89,6.89A6.9,6.9,0,0,0,166.66,484.47Zm0,13.31a6.42,6.42,0,1,1,6.41-6.42A6.43,6.43,0,0,1,166.66,497.78Z"/><path class="cls-11" d="M502.49,403.8c-11.82-16.67-25.22-35.56-51.56-35.56s-39.73,18.89-51.55,35.56C388,419.86,377.23,435,356.2,435S324.41,419.86,313,403.8c-11.82-16.67-25.22-35.56-51.56-35.56s-39.73,18.89-51.55,35.56C198.52,419.86,187.76,435,166.73,435S135,419.86,123.56,403.8C111.73,387.13,98.34,368.24,72,368.24S32.26,387.13,20.44,403.8c-3.25,4.58-6.45,9.08-9.85,13.19a5,5,0,0,0-1,1.75l-.05.18c-1.63,5.33,5.28,9,8.85,4.69,3.74-4.5,7.13-9.27,10.39-13.87C40.21,393.68,51,378.52,72,378.52s31.79,15.16,43.18,31.22c11.82,16.67,25.21,35.56,51.55,35.56s39.74-18.89,51.56-35.56c11.39-16.06,22.15-31.22,43.17-31.22s31.79,15.16,43.18,31.22c11.82,16.67,25.22,35.56,51.56,35.56s39.73-18.89,51.56-35.56c11.39-16.06,22.14-31.22,43.17-31.22s31.79,15.16,43.18,31.22c6.41,9,13.28,18.72,22.43,25.7a5.11,5.11,0,0,0,8.08-5.27l0-.13a5.22,5.22,0,0,0-1.92-2.86C514.91,421.26,508.79,412.68,502.49,403.8Z"/><path class="cls-3" d="M261.45,407.25a6.42,6.42,0,1,0,6.42,6.41A6.42,6.42,0,0,0,261.45,407.25Z"/><path class="cls-4" d="M261.45,406.29a7.38,7.38,0,1,0,7.38,7.37A7.38,7.38,0,0,0,261.45,406.29Zm0,14.27a6.9,6.9,0,1,1,6.9-6.9A6.9,6.9,0,0,1,261.45,420.56Z"/><path class="cls-3" d="M261.45,406.77a6.9,6.9,0,1,0,6.9,6.89A6.9,6.9,0,0,0,261.45,406.77Zm0,13.31a6.42,6.42,0,1,1,6.42-6.42A6.43,6.43,0,0,1,261.45,420.08Z"/><path class="cls-5" d="M71.86,407.25a6.42,6.42,0,1,0,6.41,6.41A6.42,6.42,0,0,0,71.86,407.25Z"/><path class="cls-5" d="M71.86,406.29a7.38,7.38,0,1,0,7.38,7.37A7.39,7.39,0,0,0,71.86,406.29Zm0,14.27a6.9,6.9,0,1,1,6.9-6.9A6.89,6.89,0,0,1,71.86,420.56Z"/><path class="cls-5" d="M71.86,406.77a6.9,6.9,0,1,0,6.9,6.89A6.89,6.89,0,0,0,71.86,406.77Zm0,13.31a6.42,6.42,0,1,1,6.41-6.42A6.43,6.43,0,0,1,71.86,420.08Z"/><circle class="cls-6" cx="451.05" cy="413.66" r="6.41"/><path class="cls-6" d="M451.05,406.29a7.38,7.38,0,1,0,7.37,7.37A7.39,7.39,0,0,0,451.05,406.29Zm0,14.27a6.9,6.9,0,1,1,6.89-6.9A6.9,6.9,0,0,1,451.05,420.56Z"/><path class="cls-7" d="M451.05,406.77a6.9,6.9,0,1,0,6.89,6.89A6.9,6.9,0,0,0,451.05,406.77Zm0,13.31a6.42,6.42,0,1,1,6.41-6.42A6.43,6.43,0,0,1,451.05,420.08Z"/><path class="cls-8" d="M356.25,391.73a6.41,6.41,0,1,0,6.41,6.41A6.41,6.41,0,0,0,356.25,391.73Z"/><path class="cls-8" d="M356.25,390.76a7.38,7.38,0,1,0,7.38,7.38A7.39,7.39,0,0,0,356.25,390.76Zm0,14.27a6.89,6.89,0,1,1,6.89-6.89A6.88,6.88,0,0,1,356.25,405Z"/><path class="cls-8" d="M356.25,391.25a6.89,6.89,0,1,0,6.89,6.89A6.88,6.88,0,0,0,356.25,391.25Zm0,13.3a6.41,6.41,0,1,1,6.41-6.41A6.41,6.41,0,0,1,356.25,404.55Z"/><path class="cls-9" d="M166.66,391.73a6.41,6.41,0,1,0,6.41,6.41A6.42,6.42,0,0,0,166.66,391.73Z"/><path class="cls-10" d="M166.66,390.76a7.38,7.38,0,1,0,7.37,7.38A7.39,7.39,0,0,0,166.66,390.76Zm0,14.27a6.89,6.89,0,1,1,6.89-6.89A6.89,6.89,0,0,1,166.66,405Z"/><path class="cls-9" d="M166.66,391.25a6.89,6.89,0,1,0,6.89,6.89A6.89,6.89,0,0,0,166.66,391.25Zm0,13.3a6.41,6.41,0,1,1,6.41-6.41A6.42,6.42,0,0,1,166.66,404.55Z"/><path class="cls-12" d="M399.38,310.57C388,326.63,377.23,341.8,356.2,341.8S324.41,326.63,313,310.58C301.2,293.91,287.8,275,261.46,275s-39.73,18.89-51.55,35.56c-11.39,16.05-22.15,31.22-43.18,31.22S135,326.63,123.56,310.57c-3.46-4.87-7-9.92-11.06-14.65a5.09,5.09,0,0,0-6.51-1.08l-.09.05a5.08,5.08,0,0,0-1.3,7.6c3.68,4.32,7.1,9.13,10.58,14,11.82,16.66,25.21,35.55,51.55,35.55s39.74-18.89,51.56-35.55c11.39-16.06,22.15-31.23,43.17-31.23s31.79,15.17,43.18,31.23c11.82,16.66,25.22,35.55,51.56,35.55s39.73-18.89,51.56-35.55c4.29-6,8.49-12,13.19-17a5.07,5.07,0,0,0-1.22-7.86l-.1-.06a5.1,5.1,0,0,0-6.23,1A171,171,0,0,0,399.38,310.57Z"/><path class="cls-3" d="M261.45,314a6.41,6.41,0,1,0,6.42,6.41A6.42,6.42,0,0,0,261.45,314Z"/><path class="cls-4" d="M261.45,313.07a7.38,7.38,0,1,0,7.38,7.37A7.38,7.38,0,0,0,261.45,313.07Zm0,14.27a6.9,6.9,0,1,1,6.9-6.9A6.9,6.9,0,0,1,261.45,327.34Z"/><path class="cls-3" d="M261.45,313.55a6.9,6.9,0,1,0,6.9,6.89A6.89,6.89,0,0,0,261.45,313.55Zm0,13.3a6.41,6.41,0,1,1,6.42-6.41A6.42,6.42,0,0,1,261.45,326.85Z"/><path class="cls-8" d="M356.25,311.33a6.42,6.42,0,1,0-6.41-6.41A6.42,6.42,0,0,0,356.25,311.33Z"/><path class="cls-8" d="M356.25,312.29a7.38,7.38,0,1,0-7.38-7.37A7.39,7.39,0,0,0,356.25,312.29Zm0-14.27a6.9,6.9,0,1,1-6.89,6.9A6.89,6.89,0,0,1,356.25,298Z"/><path class="cls-8" d="M356.25,311.81a6.9,6.9,0,1,0-6.89-6.89A6.89,6.89,0,0,0,356.25,311.81Zm0-13.31a6.42,6.42,0,1,1-6.41,6.42A6.42,6.42,0,0,1,356.25,298.5Z"/><path class="cls-9" d="M166.66,311.33a6.42,6.42,0,1,0-6.42-6.41A6.42,6.42,0,0,0,166.66,311.33Z"/><path class="cls-10" d="M166.66,312.29a7.38,7.38,0,1,0-7.38-7.37A7.38,7.38,0,0,0,166.66,312.29Zm0-14.27a6.9,6.9,0,1,1-6.9,6.9A6.9,6.9,0,0,1,166.66,298Z"/><path class="cls-9" d="M166.66,311.81a6.9,6.9,0,1,0-6.9-6.89A6.9,6.9,0,0,0,166.66,311.81Zm0-13.31a6.42,6.42,0,1,1-6.42,6.42A6.43,6.43,0,0,1,166.66,298.5Z"/></g></g></svg>